<?xml version="1.0" encoding="UTF-8"?>
<svg id="uuid-68d7cbe3-5f45-430d-bc2f-7c962a273b57" xmlns="http://www.w3.org/2000/svg" version="1.1" viewBox="0 0 718.7 704.5">
  <!-- Generator: Adobe Illustrator 29.3.1, SVG Export Plug-In . SVG Version: 2.1.0 Build 151)  -->
  <defs>
    <style>
      .st0 {
        fill: none;
        stroke: red;
        stroke-linecap: round;
        stroke-linejoin: round;
        stroke-width: 28.3px;
      }
    </style>
  </defs>
  <path class="st0" d="M385.2,364.1c.2-.4.4-.8.5-1.2s.3-.8.5-1.2.3-.8.4-1.3.2-.9.3-1.3.2-.9.3-1.3.2-.9.2-1.3.1-.9.2-1.4,0-.9,0-1.4,0-.9,0-1.4,0-1,0-1.4,0-.9-.1-1.4-.1-.9-.2-1.4-.1-.9-.2-1.4-.2-.9-.3-1.4-.2-.9-.4-1.3-.3-.9-.4-1.3-.3-.9-.5-1.3-.4-.8-.6-1.3-.4-.8-.6-1.2-.4-.8-.7-1.2-.5-.8-.7-1.2-.5-.8-.8-1.1-.6-.7-.9-1.1-.6-.7-.9-1.1-.6-.7-1-1c-.3-.3-.7-.7-1-1s-.7-.6-1.1-.9-.7-.6-1.1-.9-.8-.5-1.1-.8-.8-.5-1.2-.7-.8-.5-1.2-.7-.8-.4-1.2-.6-.8-.4-1.3-.6-.8-.3-1.3-.5-.9-.3-1.3-.4-.9-.3-1.3-.4-.9-.2-1.4-.3-.9-.2-1.4-.2-.9-.1-1.4-.2-.9,0-1.4-.1-1,0-1.4,0-1,0-1.4,0-.9,0-1.4.1-.9.1-1.4.2-.9.1-1.4.2-.9.2-1.4.3-.9.2-1.3.4-.9.3-1.3.4-.9.3-1.3.5-.8.4-1.3.6-.8.4-1.2.6-.8.4-1.2.7-.8.5-1.2.7-.8.5-1.1.8-.7.6-1.1.9-.7.6-1.1.9-.7.6-1,1c-.3.3-.7.7-1,1s-.6.7-.9,1.1-.6.7-.9,1.1-.5.8-.8,1.1-.5.8-.7,1.2-.5.8-.7,1.2-.4.8-.6,1.2-.4.8-.6,1.3-.3.8-.5,1.3-.3.9-.4,1.3-.3.9-.4,1.3-.2.9-.3,1.4-.2.9-.2,1.4-.1.9-.2,1.4,0,.9-.1,1.4,0,1,0,1.4c0,8.8-.4,17.5-1.3,26-.9,8.6-2.2,17-3.9,25.3-1.7,8.3-3.8,16.4-6.3,24.4s-5.4,15.8-8.6,23.4-6.8,15.1-10.8,22.3c-3.9,7.2-8.2,14.2-12.8,21-4.6,6.8-9.5,13.3-14.7,19.6s-10.7,12.4-16.5,18.1c-5.8,5.8-11.8,11.3-18.1,16.5"/>
  <path class="st0" d="M367.6,602.5c-.9-3.2-1.7-6.4-2.4-9.7s-1.4-6.5-1.9-9.8c-.6-3.3-1.1-6.6-1.5-10s-.7-6.7-1-10.1-.4-6.8-.5-10.2,0-6.8,0-10.2.3-6.8.5-10.1c.2-3.4.6-6.7,1-10s.9-6.6,1.5-9.9,1.2-6.5,2-9.8,1.5-6.5,2.4-9.6,1.9-6.4,2.9-9.5c1-3.1,2.2-6.3,3.4-9.3s2.5-6.1,3.8-9.2,2.8-6,4.3-9c1.5-3,3.1-5.9,4.7-8.8s3.4-5.7,5.1-8.5,3.6-5.6,5.6-8.3,3.9-5.4,6-8.1c2.1-2.6,4.2-5.3,6.4-7.8,2.2-2.6,4.5-5.1,6.9-7.5.9-.9,1.7-1.9,2.6-2.8s1.6-1.9,2.4-2.9c.8-1,1.5-2,2.3-3s1.4-2.1,2.1-3.1,1.3-2.1,2-3.2"/>
  <path class="st0" d="M411.4,551.6c0-2.6,0-5.1,0-7.6s.2-5.1.4-7.6.4-5,.7-7.5.7-5,1.1-7.4.9-4.9,1.5-7.3,1.2-4.8,1.8-7.2,1.4-4.8,2.2-7.1c.8-2.4,1.6-4.7,2.5-7s1.8-4.6,2.9-6.9c1-2.3,2.1-4.5,3.2-6.7s2.3-4.4,3.5-6.6,2.5-4.3,3.9-6.4c1.3-2.1,2.7-4.2,4.2-6.2s3-4.1,4.5-6.1c1.6-2,3.2-3.9,4.8-5.9s3.4-3.8,5.1-5.7c1.5-1.5,2.9-3.1,4.2-4.7s2.7-3.2,4-4.8,2.5-3.3,3.7-5,2.4-3.4,3.5-5.1,2.2-3.5,3.2-5.3,2-3.6,3-5.4,1.8-3.7,2.7-5.5,1.7-3.8,2.4-5.7c.8-1.9,1.5-3.8,2.2-5.8s1.3-3.9,1.9-5.9c.6-2,1.1-4,1.6-6,.5-2,.9-4,1.3-6s.7-4.1,1-6.1c.3-2.1.5-4.1.7-6.2.2-2.1.3-4.2.4-6.2,0-2.1.1-4.2.1-6.3s0-4.3-.2-6.5-.3-4.3-.5-6.4c-.2-2.1-.5-4.3-.8-6.4s-.7-4.2-1.1-6.3-.9-4.2-1.4-6.2-1.1-4.1-1.7-6.1c-.6-2-1.3-4-2-6s-1.5-4-2.3-5.9c-.8-2-1.7-3.9-2.6-5.8s-1.9-3.8-2.9-5.7c-1-1.9-2-3.7-3.1-5.5s-2.2-3.6-3.4-5.4-2.4-3.5-3.7-5.2c-1.3-1.7-2.6-3.4-4-5.1-1.4-1.7-2.8-3.3-4.2-4.9s-2.9-3.2-4.5-4.7c-1.5-1.5-3.1-3-4.7-4.5-1.6-1.5-3.2-2.9-4.9-4.2s-3.3-2.7-5.1-4c-1.7-1.3-3.5-2.5-5.2-3.7"/>
  <path class="st0" d="M391.2,225.8c-2.1-.5-4.1-1-6.2-1.4s-4.2-.8-6.3-1.1-4.2-.6-6.4-.8-4.3-.4-6.4-.5-4.3-.2-6.5-.2-4.3,0-6.5.2-4.3.3-6.4.5-4.3.5-6.4.8-4.2.7-6.3,1.1-4.2.9-6.2,1.4-4.1,1.1-6.1,1.7-4,1.3-6,2-4,1.5-5.9,2.3-3.9,1.7-5.8,2.6-3.8,1.9-5.7,2.9c-1.9,1-3.7,2-5.5,3.1s-3.6,2.2-5.4,3.4-3.5,2.4-5.2,3.7c-1.7,1.3-3.4,2.6-5.1,4-1.7,1.4-3.3,2.8-4.9,4.2-1.6,1.5-3.2,2.9-4.7,4.5-1.5,1.5-3,3.1-4.5,4.7s-2.9,3.2-4.2,4.9-2.7,3.3-4,5.1c-1.3,1.7-2.5,3.5-3.7,5.2s-2.3,3.6-3.4,5.4-2.1,3.7-3.1,5.5-1.9,3.8-2.9,5.7c-.9,1.9-1.8,3.8-2.6,5.8s-1.6,3.9-2.3,5.9-1.4,4-2,6-1.2,4.1-1.7,6.1-1,4.1-1.4,6.2-.8,4.2-1.1,6.3-.6,4.2-.8,6.4c-.2,2.1-.4,4.3-.5,6.4s-.2,4.3-.2,6.5c0,5.3-.3,10.5-.8,15.6s-1.3,10.2-2.3,15.2-2.3,9.9-3.8,14.7c-1.5,4.8-3.2,9.5-5.2,14.1s-4.1,9-6.5,13.4"/>
  <path class="st0" d="M520.7,435.4c1.3-2.5,2.6-5.1,3.8-7.7s2.3-5.2,3.4-7.9c1.1-2.7,2.1-5.3,3-8s1.8-5.4,2.6-8.2c.8-2.7,1.5-5.5,2.2-8.3s1.3-5.6,1.8-8.4,1-5.7,1.4-8.5c.4-2.9.8-5.7,1-8.6.3-2.9.5-5.8.6-8.7.1-2.9.2-5.8.2-8.8s0-6-.2-9-.4-6-.7-9-.7-5.9-1.1-8.9c-.4-2.9-.9-5.9-1.5-8.8-.6-2.9-1.2-5.8-1.9-8.7s-1.5-5.7-2.4-8.5c-.9-2.8-1.8-5.6-2.8-8.4-1-2.8-2-5.5-3.2-8.2s-2.3-5.4-3.6-8.1-2.6-5.3-4-7.9c-1.4-2.6-2.8-5.2-4.4-7.7s-3.1-5-4.7-7.5-3.4-4.9-5.1-7.3c-1.8-2.4-3.6-4.7-5.5-7s-3.9-4.6-5.9-6.8c-2-2.2-4.1-4.4-6.2-6.6-2.1-2.1-4.3-4.2-6.6-6.2-2.2-2-4.5-4-6.8-5.9-2.3-1.9-4.7-3.7-7-5.5s-4.8-3.5-7.3-5.1c-2.5-1.6-5-3.2-7.5-4.7-2.5-1.5-5.1-3-7.7-4.4s-5.2-2.7-7.9-4-5.3-2.4-8.1-3.6c-2.7-1.1-5.5-2.2-8.2-3.2s-5.6-1.9-8.4-2.8-5.7-1.6-8.5-2.4-5.8-1.4-8.7-1.9-5.8-1.1-8.8-1.5-5.9-.8-8.9-1.1-6-.5-9-.7-6-.2-9-.2-6,0-9,.2-6,.4-9,.7-5.9.7-8.9,1.1-5.9.9-8.8,1.5-5.8,1.2-8.7,1.9-5.7,1.5-8.5,2.4-5.6,1.8-8.4,2.8"/>
  <path class="st0" d="M258.7,201.3c-2.5,1.6-4.9,3.4-7.3,5.1s-4.7,3.6-7,5.5c-2.3,1.9-4.6,3.9-6.8,5.9s-4.4,4.1-6.6,6.2-4.2,4.3-6.2,6.6c-2,2.2-4,4.5-5.9,6.8-1.9,2.3-3.7,4.7-5.5,7-1.8,2.4-3.5,4.8-5.1,7.3-1.6,2.5-3.2,5-4.7,7.5s-3,5.1-4.4,7.7c-1.4,2.6-2.7,5.2-4,7.9s-2.4,5.3-3.6,8.1c-1.1,2.7-2.2,5.5-3.2,8.2-1,2.8-1.9,5.6-2.8,8.4s-1.6,5.7-2.4,8.5c-.7,2.9-1.4,5.8-1.9,8.7-.6,2.9-1.1,5.8-1.5,8.8s-.8,5.9-1.1,8.9-.5,6-.7,9-.2,6-.2,9-.2,7-.5,10.4-.9,6.8-1.5,10.1-1.5,6.6-2.5,9.8-2.1,6.3-3.4,9.4-2.7,6-4.3,8.9-3.3,5.7-5.1,8.4-3.8,5.3-5.9,7.9c-2.1,2.5-4.3,4.9-6.6,7.2s-4.7,4.5-7.2,6.6-5.1,4-7.9,5.9-5.5,3.5-8.4,5.1"/>
  <path class="st0" d="M172.5,74.8c2.2-1.5,4.5-3,6.7-4.4,2.3-1.4,4.5-2.9,6.8-4.2s4.6-2.7,6.9-4.1c2.3-1.3,4.7-2.6,7-3.9,2.4-1.3,4.7-2.5,7.1-3.7,2.4-1.2,4.8-2.4,7.2-3.6s4.9-2.3,7.3-3.4,4.9-2.2,7.4-3.2c2.6-1.1,5.2-2.1,7.8-3.2s5.2-2,7.8-3,5.2-1.9,7.9-2.8,5.3-1.7,7.9-2.6,5.3-1.6,8-2.4,5.4-1.5,8-2.2c2.7-.7,5.4-1.3,8.1-2"/>
  <path class="st0" d="M29.9,294c.5-2.7,1-5.5,1.5-8.2.5-2.7,1.1-5.4,1.8-8.1.6-2.7,1.3-5.4,2-8.1.7-2.7,1.4-5.4,2.2-8,.8-2.7,1.5-5.3,2.4-8,.8-2.7,1.7-5.3,2.6-7.9s1.8-5.3,2.8-7.9c1-2.6,1.9-5.2,3-7.8,1-2.6,2.1-5.2,3.2-7.8,1.1-2.5,2.1-5,3.2-7.4,1.1-2.5,2.2-4.9,3.4-7.3,1.2-2.4,2.4-4.8,3.6-7.2s2.5-4.8,3.7-7.1,2.6-4.7,3.9-7,2.7-4.6,4.1-6.9,2.8-4.6,4.2-6.8c1.4-2.3,2.9-4.5,4.4-6.7,1.5-2.2,3-4.4,4.6-6.6s3.1-4.4,4.7-6.5,3.2-4.3,4.9-6.4c1.7-2.1,3.3-4.2,5.1-6.3s3.4-4.1,5.2-6.2c1.8-2,3.6-4.1,5.4-6s3.7-4,5.5-5.9,3.8-3.9,5.7-5.8,3.9-3.8,5.8-5.7,3.9-3.7,5.9-5.5,4-3.6,6-5.4"/>
  <path class="st0" d="M65.6,402.3c-1.7-.3-3.3-.8-4.9-1.3-1.6-.5-3.2-1.1-4.7-1.7s-3-1.4-4.5-2.1c-1.4-.8-2.8-1.6-4.2-2.6-1.4-.9-2.7-1.9-3.9-2.9-1.3-1-2.5-2.1-3.6-3.3s-2.3-2.4-3.3-3.6-2-2.6-2.9-3.9-1.8-2.8-2.6-4.2-1.5-2.9-2.1-4.5-1.2-3.1-1.7-4.7-.9-3.2-1.3-4.9-.6-3.4-.8-5.1-.3-3.5-.3-5.2c0-2.8,0-5.6.1-8.4,0-2.8.2-5.6.3-8.4"/>
  <path class="st0" d="M359.3,119.9c-3.9,0-7.7,0-11.6.3s-7.7.5-11.5.8-7.6.8-11.4,1.4-7.5,1.2-11.2,1.9-7.4,1.6-11.1,2.5c-3.7.9-7.3,1.9-10.9,3s-7.2,2.3-10.7,3.5-7.1,2.6-10.5,4.1c-3.5,1.4-6.9,3-10.3,4.6s-6.8,3.3-10.1,5.1c-3.3,1.8-6.6,3.6-9.9,5.6-3.2,1.9-6.4,4-9.6,6.1s-6.3,4.3-9.3,6.6-6.1,4.6-9,7.1-5.9,4.9-8.7,7.5-5.7,5.3-8.4,8c-2.7,2.7-5.4,5.5-8,8.4s-5.1,5.8-7.5,8.7-4.8,6-7.1,9-4.5,6.2-6.6,9.3-4.1,6.4-6.1,9.6c-1.9,3.2-3.8,6.5-5.6,9.9s-3.5,6.7-5.1,10.1c-1.6,3.4-3.1,6.9-4.6,10.3s-2.8,7-4.1,10.5-2.5,7.1-3.5,10.7-2.1,7.3-3,10.9c-.9,3.7-1.7,7.4-2.5,11.1s-1.4,7.5-1.9,11.2c-.6,3.8-1,7.6-1.4,11.4-.4,3.8-.7,7.6-.8,11.5s-.3,7.7-.3,11.6,0,3.5-.3,5.2-.4,3.4-.8,5.1-.8,3.3-1.3,4.9-1.1,3.2-1.7,4.7-1.4,3-2.1,4.5-1.6,2.9-2.6,4.2-1.9,2.7-2.9,3.9-2.1,2.5-3.3,3.6-2.4,2.3-3.6,3.3-2.6,2-3.9,2.9"/>
  <path class="st0" d="M589.3,317.9c-.6-3.8-1.2-7.5-1.9-11.2s-1.6-7.4-2.5-11.1c-.9-3.7-1.9-7.3-3-10.9s-2.3-7.2-3.5-10.7-2.6-7.1-4.1-10.5-3-6.9-4.6-10.3c-1.6-3.4-3.3-6.8-5.1-10.1-1.8-3.3-3.6-6.6-5.6-9.9s-4-6.4-6.1-9.6-4.3-6.3-6.6-9.3-4.6-6.1-7.1-9-4.9-5.9-7.5-8.7-5.3-5.7-8-8.4c-2.7-2.7-5.5-5.4-8.4-8s-5.8-5.1-8.7-7.5-6-4.8-9-7.1c-3.1-2.3-6.2-4.5-9.3-6.6-3.2-2.1-6.4-4.1-9.6-6.1-3.2-1.9-6.5-3.8-9.9-5.6s-6.7-3.5-10.1-5.1-6.9-3.1-10.3-4.6-7-2.8-10.5-4.1-7.1-2.5-10.7-3.5-7.3-2.1-10.9-3-7.4-1.7-11.1-2.5"/>
  <path class="st0" d="M591,591.6c-.7.5-1.5.9-2.2,1.3s-1.5.8-2.3,1.2-1.6.7-2.3,1c-.8.3-1.6.6-2.4.9s-1.6.6-2.4.8-1.6.5-2.4.7-1.6.4-2.5.6-1.7.3-2.5.4-1.7.2-2.5.3-1.7.1-2.5.2-1.7,0-2.5,0-1.6,0-2.4,0-1.6,0-2.4-.2-1.6-.2-2.4-.3-1.6-.2-2.3-.4-1.6-.3-2.3-.5-1.5-.4-2.3-.6-1.5-.5-2.3-.7-1.5-.5-2.3-.8-1.5-.6-2.2-.9-1.5-.7-2.2-1-1.4-.8-2.2-1.2-1.4-.8-2.1-1.3-1.4-.9-2.1-1.4-1.3-1-2-1.5-1.3-1-1.9-1.6-1.3-1.1-1.9-1.7c-1.3-1.2-2.5-2.5-3.6-3.8-1.1-1.3-2.2-2.7-3.1-4.1-1-1.4-1.9-2.8-2.7-4.3s-1.5-3-2.2-4.5-1.2-3.1-1.7-4.6c-.5-1.6-.9-3.2-1.3-4.8-.3-1.6-.6-3.2-.8-4.8-.2-1.6-.3-3.3-.3-4.9,0-1.6,0-3.3.1-4.9.1-1.6.3-3.3.6-4.9.3-1.6.6-3.2,1.1-4.8s.9-3.2,1.5-4.7,1.3-3.1,2-4.6c.7-1.5,1.6-3,2.5-4.4s1.9-2.8,2.9-4.2,2.2-2.7,3.4-4c2.6-2.7,5.1-5.5,7.6-8.3,2.4-2.8,4.8-5.7,7.1-8.6,2.3-2.9,4.5-5.9,6.7-8.9s4.2-6.1,6.2-9.2,3.9-6.2,5.7-9.4c1.8-3.2,3.6-6.4,5.3-9.7,1.7-3.3,3.3-6.6,4.8-9.9,1.5-3.3,3-6.7,4.3-10.1,1.4-3.4,2.6-6.8,3.8-10.3,1.2-3.5,2.3-7,3.3-10.5,1-3.5,2-7.1,2.8-10.6.9-3.6,1.6-7.2,2.3-10.8.7-3.6,1.3-7.3,1.8-10.9s1-7.3,1.3-11c.4-3.7.6-7.4.8-11.1"/>
  <path class="st0" d="M688.8,294c.5,2.7.9,5.5,1.3,8.2s.8,5.5,1.1,8.3.7,5.5.9,8.3.5,5.6.7,8.3.4,5.6.5,8.4.2,5.6.3,8.4.1,5.6.1,8.4c0,5.4-.1,10.8-.4,16.1s-.6,10.7-1.1,16-1.1,10.6-1.9,15.9c-.8,5.3-1.6,10.5-2.6,15.7s-2.1,10.4-3.4,15.5c-1.2,5.1-2.6,10.2-4.1,15.3-1.5,5.1-3.1,10.1-4.8,15.1-1.7,5-3.6,9.9-5.5,14.8s-4,9.7-6.2,14.5c-2.2,4.8-4.5,9.5-6.9,14.2-2.4,4.7-5,9.3-7.6,13.9-2.6,4.6-5.4,9.1-8.3,13.6-2.9,4.5-5.8,8.9-8.9,13.2s-6.3,8.6-9.6,12.8"/>
  <path class="st0" d="M450.1,30.3c2.7.8,5.3,1.5,8,2.4s5.3,1.7,7.9,2.6,5.3,1.8,7.9,2.8,5.2,1.9,7.8,3,5.2,2.1,7.8,3.2c2.5,1.1,5,2.1,7.4,3.2s4.9,2.2,7.3,3.4,4.8,2.4,7.2,3.6c2.4,1.2,4.8,2.5,7.1,3.7s4.7,2.6,7,3.9,4.6,2.7,6.9,4.1c2.3,1.4,4.6,2.8,6.8,4.2,2.3,1.4,4.5,2.9,6.7,4.4s4.4,3,6.6,4.6,4.3,3.1,6.5,4.7,4.3,3.2,6.4,4.9c2.1,1.7,4.2,3.3,6.3,5.1s4.1,3.4,6.2,5.2c2,1.8,4.1,3.6,6,5.4s4,3.7,5.9,5.5,3.9,3.8,5.8,5.7,3.8,3.9,5.7,5.8,3.7,3.9,5.5,5.9c1.8,2,3.6,4,5.4,6,1.8,2,3.5,4.1,5.2,6.2s3.4,4.2,5.1,6.3,3.3,4.2,4.9,6.4c1.6,2.1,3.2,4.3,4.7,6.5s3.1,4.4,4.6,6.6,3,4.5,4.4,6.7,2.9,4.5,4.2,6.8c1.4,2.3,2.7,4.6,4.1,6.9,1.3,2.3,2.6,4.7,3.9,7s2.5,4.7,3.7,7.1c1.2,2.4,2.4,4.8,3.6,7.2s2.3,4.9,3.4,7.3,2.2,4.9,3.2,7.4c1.1,2.6,2.1,5.2,3.2,7.8s2,5.2,3,7.8"/>
  <path class="st0" d="M334.1,18.8c2.8-.2,5.6-.4,8.4-.5s5.6-.2,8.4-.3,5.6-.1,8.4-.1,5.6,0,8.4.1,5.6.2,8.4.3,5.6.3,8.4.5,5.6.4,8.3.7,5.5.6,8.3.9,5.5.7,8.3,1.1"/>
  <path class="st0" d="M626.6,447c-1.5,4.2-3.1,8.4-4.8,12.5s-3.5,8.2-5.4,12.3-3.8,8-5.9,11.9c-2.1,3.9-4.2,7.8-6.4,11.6s-4.6,7.6-7,11.3-4.9,7.3-7.5,10.9c-2.6,3.6-5.2,7.1-8,10.5s-5.5,6.8-8.4,10.2-5.8,6.6-8.9,9.7"/>
  <path class="st0" d="M594.4,193.8c5.1,7.5,9.8,15.3,14.2,23.4,4.4,8,8.4,16.3,11.9,24.8,3.6,8.5,6.8,17.2,9.5,26,2.8,8.9,5.1,17.9,7,27.2,1.9,9.2,3.3,18.6,4.3,28.1,1,9.5,1.5,19.2,1.5,29s-.1,9.5-.3,14.1-.6,9.3-1,14-1,9.2-1.7,13.8"/>
  <path class="st0" d="M124.3,193.8c5.1-7.5,10.5-14.8,16.3-21.8,5.8-7,11.9-13.7,18.3-20.1s13.1-12.5,20.1-18.3c7-5.8,14.3-11.2,21.8-16.3s15.3-9.8,23.4-14.2,16.3-8.4,24.8-11.9c8.5-3.6,17.2-6.8,26-9.5,8.9-2.8,17.9-5.1,27.2-7,9.2-1.9,18.6-3.3,28.1-4.3s19.2-1.5,29-1.5,19.5.5,29,1.5c9.5,1,18.9,2.4,28.1,4.3s18.3,4.2,27.2,7,17.6,5.9,26,9.5c8.5,3.6,16.7,7.6,24.8,11.9s15.8,9.1,23.4,14.2,14.8,10.5,21.8,16.3c7,5.8,13.7,11.9,20.1,18.3"/>
  <path class="st0" d="M75.9,352.3c0-9.8.5-19.5,1.5-29s2.4-18.9,4.3-28.1,4.2-18.3,7-27.2,5.9-17.6,9.5-26"/>
  <g>
    <path class="st0" d="M287.5,679.1c0-.2-.2-.4-.3-.6-1.8-3.7-3.4-7.5-5.1-11.3s-3.1-7.7-4.6-11.5c-1.5-3.9-2.8-7.8-4.1-11.7-1.3-3.9-2.5-7.9-3.6-11.9s-2.2-8-3.2-12.1c-1-4-1.9-8.1-2.7-12.2-.8-4.1-1.5-8.2-2.2-12.4-3.2,2.5-6.5,4.9-9.8,7.2-3.3,2.3-6.7,4.6-10.1,6.8s-6.9,4.4-10.4,6.4-7.1,4.1-10.7,6c-3.6,1.9-7.2,3.8-10.9,5.6s-7.4,3.5-11.2,5.2-7.6,3.2-11.4,4.7c-.6.2-1.3.5-1.9.7"/>
    <path class="st0" d="M525.8,642.5c-1.3-.5-2.6-1.1-3.8-1.6-1.5-.7-2.9-1.4-4.3-2.1-1.4-.7-2.8-1.5-4.2-2.3-1.4-.8-2.8-1.6-4.1-2.5-1.4-.9-2.7-1.8-4-2.7-1.3-.9-2.6-1.9-3.9-2.9s-2.5-2-3.8-3.1c-1.2-1.1-2.5-2.2-3.6-3.3-1.2-1.2-2.4-2.4-3.6-3.6-1.2-1.2-2.3-2.5-3.4-3.8-1.1-1.3-2.2-2.6-3.2-3.9s-2-2.7-3-4-1.9-2.7-2.8-4.2c-.9-1.4-1.7-2.8-2.6-4.3-.8-1.4-1.6-2.9-2.3-4.4s-1.4-3-2.1-4.5-1.3-3-1.9-4.6c-.6-1.5-1.1-3.1-1.7-4.7s-1-3.2-1.4-4.8-.8-3.2-1.2-4.8-.7-3.3-1-4.9c-.3-1.6-.5-3.3-.7-5-.2-1.7-.4-3.3-.5-5s-.2-3.4-.2-5.1c0-1.7,0-3.4,0-5.1s.1-3.4.3-5.1.3-3.3.5-5c.2-1.7.5-3.3.7-5,.3-1.6.6-3.3,1-4.9.4-1.6.8-3.2,1.2-4.8.4-1.6.9-3.2,1.4-4.8.5-1.6,1.1-3.1,1.7-4.7.6-1.5,1.2-3.1,1.9-4.6.7-1.5,1.4-3,2.1-4.5.7-1.5,1.5-2.9,2.4-4.4s1.7-2.9,2.6-4.3c.9-1.4,1.8-2.8,2.8-4.2s2-2.7,3-4c1-1.3,2.1-2.6,3.2-3.9,1.1-1.3,2.2-2.5,3.4-3.8,2-2.1,4-4.3,5.9-6.5-1.9,2.2-3.9,4.4-5.9,6.5-1.2,1.2-2.3,2.5-3.4,3.8s-2.2,2.6-3.2,3.9c-1,1.3-2,2.7-3,4s-1.9,2.8-2.8,4.2c-.9,1.4-1.8,2.8-2.6,4.3s-1.6,2.9-2.4,4.4c-.7,1.5-1.5,3-2.1,4.5s-1.3,3-1.9,4.6-1.2,3.1-1.7,4.7-1,3.2-1.4,4.8c-.4,1.6-.8,3.2-1.2,4.8-.4,1.6-.7,3.3-1,4.9-.3,1.6-.5,3.3-.7,5-.2,1.7-.4,3.3-.5,5s-.2,3.4-.3,5.1,0,3.4,0,5.1c0,1.7.1,3.4.2,5.1s.3,3.4.5,5c.2,1.7.4,3.3.7,5,.3,1.6.6,3.3,1,4.9.4,1.6.8,3.2,1.2,4.8.4,1.6.9,3.2,1.4,4.8s1.1,3.1,1.7,4.7c.6,1.5,1.2,3.1,1.9,4.6.7,1.5,1.4,3,2.1,4.5s1.5,2.9,2.3,4.4,1.7,2.9,2.6,4.3,1.8,2.8,2.8,4.2c1,1.4,2,2.7,3,4s2.1,2.6,3.2,3.9,2.2,2.5,3.4,3.8c1.2,1.2,2.4,2.4,3.6,3.6,1.2,1.1,2.4,2.2,3.6,3.3,1.2,1.1,2.5,2.1,3.8,3.1,1.3,1,2.6,2,3.9,2.9,1.3.9,2.7,1.9,4,2.7,1.4.9,2.7,1.7,4.1,2.5s2.8,1.6,4.2,2.3c1.4.7,2.9,1.4,4.3,2.1,1.3.6,2.5,1.1,3.8,1.6"/>
    <path class="st0" d="M469.6,668.2c-1.8-1.4-3.6-2.9-5.4-4.5-1.9-1.6-3.7-3.3-5.5-5-1.8-1.8-3.6-3.6-5.4-5.4-1.7-1.8-3.4-3.7-5.1-5.6s-3.2-3.9-4.8-5.8c-1.5-2-3-4-4.5-6-1.4-2-2.8-4.1-4.2-6.2s-2.6-4.2-3.8-6.4-2.4-4.4-3.5-6.6-2.2-4.5-3.2-6.7-1.9-4.6-2.8-6.9-1.7-4.7-2.5-7c-.8-2.4-1.5-4.7-2.2-7.1.7,2.4,1.4,4.8,2.2,7.1.8,2.4,1.6,4.7,2.5,7,.9,2.3,1.8,4.6,2.8,6.9s2.1,4.5,3.2,6.7,2.3,4.4,3.5,6.6c1.2,2.2,2.5,4.3,3.8,6.4s2.7,4.2,4.2,6.2c1.4,2,2.9,4.1,4.5,6,1.5,2,3.1,3.9,4.8,5.8,1.6,1.9,3.3,3.8,5.1,5.6,1.7,1.8,3.5,3.6,5.4,5.4,1.8,1.7,3.6,3.4,5.5,5,1.8,1.5,3.6,3,5.4,4.5"/>
    <path class="st0" d="M411.1,682.8c-.5-.6-1.1-1.2-1.7-1.9-2.2-2.5-4.3-5.1-6.4-7.8-2.1-2.6-4-5.3-6-8-1.9-2.7-3.8-5.5-5.5-8.3-1.8-2.8-3.5-5.7-5.1-8.5,1.6,2.9,3.3,5.7,5.1,8.5,1.8,2.8,3.6,5.6,5.5,8.3s3.9,5.4,6,8c2.1,2.6,4.2,5.2,6.4,7.8.5.6,1.1,1.2,1.7,1.9"/>
    <path class="st0" d="M350.1,686.7c-.6-.9-1.2-1.8-1.7-2.7-2.2-3.5-4.3-7.1-6.4-10.7-2-3.6-4-7.3-5.8-11-1.9-3.7-3.6-7.4-5.3-11.2s-3.2-7.6-4.7-11.5-2.9-7.8-4.2-11.7-2.5-7.9-3.6-11.9c-1.1-4-2.1-8-3-12.1s-1.7-8.2-2.4-12.3c-.7-4.1-1.3-8.3-1.8-12.4-.5-4.2-.9-8.4-1.2-12.6-.3-4.2-.5-8.5-.6-12.7s0-8.5,0-12.7c.1-4.2.3-8.4.6-12.6.3-4.2.7-8.4,1.2-12.5s1.1-8.3,1.8-12.4c.7-4.1,1.5-8.2,2.4-12.2s1.9-8.1,3-12.1c1.1-4,2.3-8,3.6-11.9,1.3-3.9,2.7-7.8,4.2-11.7,1.5-3.9,3.1-7.7,4.8-11.5s3.5-7.5,5.3-11.2c1.9-3.7,3.8-7.4,5.9-11,2.1-3.6,4.2-7.2,6.4-10.7,2.2-3.5,4.6-7,7-10.4,2.4-3.4,4.9-6.8,7.5-10.1-2.6,3.3-5.1,6.7-7.5,10.1-2.4,3.4-4.7,6.9-7,10.4-2.2,3.5-4.4,7.1-6.4,10.7-2.1,3.6-4,7.3-5.9,11-1.9,3.7-3.6,7.4-5.3,11.2s-3.3,7.6-4.8,11.5c-1.5,3.9-2.9,7.7-4.2,11.7s-2.5,7.9-3.6,11.9c-1.1,4-2.1,8-3,12.1s-1.7,8.1-2.4,12.2-1.3,8.2-1.8,12.4c-.5,4.1-.9,8.3-1.2,12.5-.3,4.2-.5,8.4-.6,12.6-.1,4.2-.1,8.5,0,12.7,0,4.3.3,8.5.6,12.7.3,4.2.7,8.4,1.2,12.6s1.1,8.3,1.8,12.4c.7,4.1,1.5,8.2,2.4,12.3s1.9,8.1,3,12.1c1.1,4,2.3,8,3.6,11.9s2.7,7.8,4.2,11.7,3.1,7.7,4.7,11.5,3.4,7.5,5.3,11.2c1.9,3.7,3.8,7.3,5.8,11s4.2,7.2,6.4,10.7c.6.9,1.2,1.8,1.7,2.7"/>
    <path class="st0" d="M185.5,638.2c.6-.2,1.3-.5,1.9-.7,3.8-1.5,7.6-3.1,11.4-4.7,3.8-1.7,7.5-3.4,11.2-5.2s7.3-3.7,10.9-5.6c3.6-1.9,7.2-4,10.7-6,3.5-2.1,7-4.2,10.4-6.4,3.4-2.2,6.8-4.5,10.1-6.8s6.6-4.8,9.8-7.2c.6,4.1,1.4,8.3,2.2,12.4s1.7,8.2,2.7,12.2c1,4,2,8.1,3.2,12.1s2.3,8,3.6,11.9c1.3,3.9,2.7,7.8,4.1,11.7,1.5,3.9,3,7.7,4.6,11.5,1.6,3.8,3.3,7.6,5.1,11.3,0,.2.2.4.3.6"/>
    <path class="st0" d="M135.1,600.5c5.6-1.3,11.1-2.8,16.6-4.5,8-2.5,15.8-5.4,23.4-8.6,7.6-3.2,15.1-6.8,22.3-10.8-7.2,3.9-14.7,7.5-22.3,10.8s-15.4,6.1-23.4,8.6c-5.4,1.7-11,3.2-16.6,4.5"/>
    <path class="st0" d="M93.7,555.6c1,0,2-.2,3-.3,6.9-.7,13.6-1.7,20.2-3.1s13.2-3,19.5-5c6.4-2,12.6-4.3,18.7-6.9,6.1-2.6,12.1-5.5,17.8-8.6,5.8-3.1,11.4-6.6,16.8-10.2,5.4-3.7,10.7-7.6,15.7-11.8,5-4.2,9.9-8.6,14.5-13.2s9-9.5,13.2-14.5c4.2-5,8.1-10.3,11.8-15.7,3.7-5.4,7.1-11,10.2-16.8,3.1-5.8,6-11.7,8.6-17.8,2.6-6.1,4.9-12.4,6.9-18.7s3.7-12.9,5-19.5c1.4-6.6,2.4-13.4,3.1-20.2.7-6.9,1.1-13.8,1.1-20.8s0-2.6,0-4c0-1.3.2-2.6.3-3.9.1-1.3.3-2.6.5-3.9s.4-2.6.7-3.8.5-2.5.8-3.8c.3-1.3.7-2.5,1-3.7.4-1.2.8-2.5,1.2-3.7.4-1.2.9-2.4,1.4-3.6.5-1.2,1-2.4,1.6-3.5s1.1-2.3,1.7-3.4c.6-1.1,1.2-2.3,1.9-3.4s1.4-2.2,2.1-3.3c.7-1.1,1.5-2.1,2.2-3.2.8-1,1.6-2.1,2.4-3.1s1.7-2,2.6-3,1.8-1.9,2.7-2.9c.9-.9,1.9-1.8,2.9-2.7s2-1.7,3-2.6c1-.8,2-1.6,3.1-2.4,1-.8,2.1-1.5,3.2-2.2,1.1-.7,2.2-1.4,3.3-2.1,1.1-.7,2.2-1.3,3.4-1.9s2.3-1.2,3.5-1.7c1.2-.6,2.3-1.1,3.5-1.6,1.2-.5,2.4-1,3.6-1.4,1.2-.4,2.4-.8,3.7-1.2s2.5-.7,3.7-1c1.3-.3,2.5-.6,3.8-.8,1.3-.3,2.6-.5,3.8-.7,1.3-.2,2.6-.3,3.9-.5,1.3-.1,2.6-.2,3.9-.3,1.3,0,2.6,0,4,0s2.6,0,4,0c1.3,0,2.6.2,3.9.3s2.6.3,3.9.5,2.6.4,3.8.7c1.3.3,2.5.5,3.8.8,1.3.3,2.5.7,3.7,1,1.2.4,2.5.8,3.7,1.2,1.2.4,2.4.9,3.6,1.4s2.4,1,3.5,1.6c1.2.5,2.3,1.1,3.4,1.7,1.1.6,2.3,1.2,3.4,1.9,1.1.7,2.2,1.4,3.3,2.1,1.1.7,2.1,1.5,3.2,2.2s2.1,1.6,3.1,2.4,2,1.7,3,2.6c1,.9,1.9,1.8,2.9,2.7.9.9,1.8,1.9,2.7,2.9s1.7,2,2.6,3c.8,1,1.6,2,2.4,3.1.8,1,1.5,2.1,2.2,3.2.7,1.1,1.4,2.2,2.1,3.3.7,1.1,1.3,2.2,1.9,3.4s1.2,2.3,1.7,3.5c.6,1.2,1.1,2.3,1.6,3.5.5,1.2,1,2.4,1.4,3.6s.8,2.4,1.2,3.7.7,2.5,1,3.7c.3,1.3.6,2.5.8,3.8.3,1.3.5,2.5.7,3.8.2,1.3.3,2.6.5,3.9.1,1.3.2,2.6.3,3.9,0,1.3,0,2.6,0,4,0-1.3,0-2.6,0-4,0-1.3-.2-2.6-.3-3.9s-.3-2.6-.5-3.9-.4-2.6-.7-3.8c-.3-1.3-.5-2.5-.8-3.8-.3-1.3-.7-2.5-1-3.7s-.8-2.5-1.2-3.7-.9-2.4-1.4-3.6c-.5-1.2-1-2.4-1.6-3.5-.6-1.2-1.1-2.3-1.7-3.5-.6-1.1-1.2-2.3-1.9-3.4-.7-1.1-1.4-2.2-2.1-3.3-.7-1.1-1.5-2.1-2.2-3.2-.8-1-1.6-2.1-2.4-3.1-.8-1-1.7-2-2.6-3s-1.8-1.9-2.7-2.9c-.9-.9-1.9-1.8-2.9-2.7s-2-1.7-3-2.6c-1-.8-2-1.6-3.1-2.4s-2.1-1.5-3.2-2.2c-1.1-.7-2.2-1.4-3.3-2.1-1.1-.7-2.2-1.3-3.4-1.9s-2.3-1.2-3.4-1.7-2.3-1.1-3.5-1.6-2.4-1-3.6-1.4c-1.2-.4-2.4-.8-3.7-1.2-1.2-.4-2.5-.7-3.7-1-1.3-.3-2.5-.6-3.8-.8-1.3-.3-2.5-.5-3.8-.7-1.3-.2-2.6-.3-3.9-.5-1.3-.1-2.6-.2-3.9-.3-1.3,0-2.6,0-4,0s-2.6,0-4,0c-1.3,0-2.6.2-3.9.3s-2.6.3-3.9.5-2.6.4-3.8.7c-1.3.3-2.5.5-3.8.8-1.3.3-2.5.7-3.7,1s-2.5.8-3.7,1.2c-1.2.4-2.4.9-3.6,1.4-1.2.5-2.4,1-3.5,1.6-1.2.6-2.3,1.1-3.5,1.7-1.1.6-2.3,1.2-3.4,1.9-1.1.7-2.2,1.4-3.3,2.1s-2.1,1.5-3.2,2.2c-1,.8-2.1,1.6-3.1,2.4-1,.8-2,1.7-3,2.6s-1.9,1.8-2.9,2.7c-.9.9-1.8,1.9-2.7,2.9s-1.7,2-2.6,3-1.6,2-2.4,3.1c-.8,1-1.5,2.1-2.2,3.2-.7,1.1-1.4,2.2-2.1,3.3-.7,1.1-1.3,2.2-1.9,3.4s-1.2,2.3-1.7,3.4-1.1,2.3-1.6,3.5c-.5,1.2-1,2.4-1.4,3.6-.4,1.2-.8,2.4-1.2,3.7-.4,1.2-.7,2.5-1,3.7-.3,1.3-.6,2.5-.8,3.8s-.5,2.5-.7,3.8c-.2,1.3-.3,2.6-.5,3.9-.1,1.3-.2,2.6-.3,3.9,0,1.3,0,2.6,0,4,0,7-.4,14-1.1,20.8-.7,6.9-1.7,13.6-3.1,20.2-1.4,6.6-3,13.2-5,19.5-2,6.4-4.3,12.6-6.9,18.7s-5.5,12.1-8.6,17.8c-3.1,5.8-6.6,11.4-10.2,16.8-3.7,5.4-7.6,10.7-11.8,15.7s-8.6,9.9-13.2,14.5-9.5,9-14.5,13.2c-5,4.2-10.3,8.1-15.7,11.8-5.4,3.7-11,7.1-16.8,10.2-5.8,3.1-11.7,6-17.8,8.6-6.1,2.6-12.4,4.9-18.7,6.9-6.4,2-12.9,3.7-19.5,5s-13.4,2.4-20.2,3.1c-1,.1-2,.2-3,.3"/>
    <path class="st0" d="M61.5,504.7c4.7.4,9.5.7,14.4.7s10.5-.3,15.6-.8c5.1-.5,10.2-1.3,15.2-2.3,5-1,9.9-2.3,14.7-3.8,4.8-1.5,9.5-3.2,14.1-5.2,4.6-1.9,9-4.1,13.4-6.5,4.3-2.4,8.5-4.9,12.6-7.7s8-5.7,11.8-8.8,7.4-6.4,10.9-9.9c-3.5,3.5-7.1,6.8-10.9,9.9-3.8,3.1-7.7,6.1-11.8,8.8s-8.3,5.3-12.6,7.7c-4.3,2.4-8.8,4.5-13.4,6.5-4.6,1.9-9.3,3.7-14.1,5.2s-9.7,2.8-14.7,3.8c-5,1-10,1.8-15.2,2.3-5.1.5-10.4.8-15.6.8s-9.6-.2-14.4-.7"/>
    <path class="st0" d="M38.5,447.3c2.3.9,4.6,1.7,7,2.5,3.2,1,6.5,1.8,9.8,2.5s6.7,1.2,10.1,1.5c3.4.3,6.9.5,10.4.5s7-.2,10.4-.5c-3.4.3-6.9.5-10.4.5s-7-.2-10.4-.5c-3.4-.3-6.8-.9-10.1-1.5s-6.6-1.5-9.8-2.5c-2.4-.7-4.7-1.6-7-2.5"/>
  </g>
</svg>