<?xml version="1.0" encoding="UTF-8"?>
<svg id="Ebene_1" xmlns="http://www.w3.org/2000/svg" version="1.1" viewBox="0 0 16 16">
  <!-- Generator: Adobe Illustrator 29.4.0, SVG Export Plug-In . SVG Version: 2.1.0 Build 152)  -->
  <defs>
    <style>
      .st0 {
        stroke: red;
        stroke-miterlimit: 10;
      }
    </style>
  </defs>
  <path class="st0" d="M4.6,4.6c.2-.2.5-.2.7,0,0,0,0,0,0,0l2.6,2.6,2.6-2.6c.2-.2.5-.2.7,0s.2.5,0,.7l-2.6,2.6,2.6,2.6c.2.2.2.5,0,.7s-.5.2-.7,0l-2.6-2.6-2.6,2.6c-.2.2-.5.2-.7,0s-.2-.5,0-.7l2.6-2.6-2.6-2.6c-.2-.2-.2-.5,0-.7,0,0,0,0,0,0"/>
</svg>